<svg width="256" height="256" viewBox="0 0 256 256" fill="none" xmlns="http://www.w3.org/2000/svg">
  <!-- 渐变定义 -->
  <defs>
    <linearGradient id="bgGradient" x1="0%" y1="0%" x2="100%" y2="100%">
      <stop offset="0%" style="stop-color:#667eea;stop-opacity:1" />
      <stop offset="100%" style="stop-color:#764ba2;stop-opacity:1" />
    </linearGradient>
    <linearGradient id="ovalGradient" x1="0%" y1="0%" x2="100%" y2="100%">
      <stop offset="0%" style="stop-color:#ff7e5f;stop-opacity:1" />
      <stop offset="100%" style="stop-color:#feb47b;stop-opacity:1" />
    </linearGradient>
    <linearGradient id="nodeGradient" x1="0%" y1="0%" x2="100%" y2="100%">
      <stop offset="0%" style="stop-color:#68d391;stop-opacity:1" />
      <stop offset="100%" style="stop-color:#38b2ac;stop-opacity:1" />
    </linearGradient>
  </defs>
  
  <!-- 主背景 -->
  <rect width="256" height="256" rx="48" fill="url(#bgGradient)"/>
  
  <!-- OVO 椭圆形设计元素 -->
  <ellipse cx="128" cy="80" rx="45" ry="25" fill="url(#ovalGradient)" opacity="0.8"/>
  <ellipse cx="95" cy="180" rx="35" ry="20" fill="url(#ovalGradient)" opacity="0.6"/>
  <ellipse cx="165" cy="190" rx="30" ry="18" fill="url(#ovalGradient)" opacity="0.7"/>
  
  <!-- Node.js 六边形核心 -->
  <polygon points="128,100 148,110 148,130 128,140 108,130 108,110" fill="url(#nodeGradient)" stroke="#ffffff" stroke-width="2"/>
  
  <!-- Hub 连接线 -->
  <line x1="128" y1="120" x2="85" y2="155" stroke="#ffffff" stroke-width="3" opacity="0.8"/>
  <line x1="128" y1="120" x2="171" y2="155" stroke="#ffffff" stroke-width="3" opacity="0.8"/>
  <line x1="128" y1="120" x2="128" y2="175" stroke="#ffffff" stroke-width="3" opacity="0.8"/>
  
  <!-- 连接节点 -->
  <circle cx="85" cy="155" r="8" fill="#ffffff" opacity="0.9"/>
  <circle cx="171" cy="155" r="8" fill="#ffffff" opacity="0.9"/>
  <circle cx="128" cy="175" r="8" fill="#ffffff" opacity="0.9"/>
  
  <!-- Pro 标识 - 小的装饰元素 -->
  <rect x="180" y="50" width="20" height="4" rx="2" fill="#ffffff" opacity="0.7"/>
  <rect x="180" y="58" width="15" height="4" rx="2" fill="#ffffff" opacity="0.7"/>
  <rect x="180" y="66" width="18" height="4" rx="2" fill="#ffffff" opacity="0.7"/>
  
  <!-- OVO 装饰圆点 -->
  <circle cx="70" cy="90" r="4" fill="#ffffff" opacity="0.6"/>
  <circle cx="190" cy="85" r="3" fill="#ffffff" opacity="0.5"/>
  <circle cx="60" cy="200" r="5" fill="#ffffff" opacity="0.4"/>
  <circle cx="200" cy="210" r="4" fill="#ffffff" opacity="0.5"/>
  
  <!-- 外边框 -->
  <rect width="256" height="256" rx="48" stroke="#ffffff" stroke-width="3" fill="none" opacity="0.3"/>
</svg>
